<?xml version="1.0" encoding="utf-8"?>
<!-- Generator: Adobe Illustrator 21.1.0, SVG Export Plug-In . SVG Version: 6.00 Build 0)  -->
<svg version="1.1" id="Layer_1" xmlns="http://www.w3.org/2000/svg" xmlns:xlink="http://www.w3.org/1999/xlink" x="0px" y="0px"
	 viewBox="0 0 183 132.1" style="enable-background:new 0 0 183 132.1;" xml:space="preserve">
<style type="text/css">
	.st0{fill:#007F00;}
</style>
<g>
	<g>
		<path class="st0" d="M127.9,34.9C123.7,19.7,113.6,10.1,98.2,7C81.9,3.6,67.9,8.5,57.9,22.2C48.5,35.1,48,49,55.5,63.1
			c4.2,8.1,9.3,15.6,14.3,23.3c9.2,14.1,16.4,29.1,20.2,45.7c3.8-17.5,11.8-33.1,21.6-47.9c5-7.6,10-15.2,13.9-23.5
			C129.5,52.5,130.4,43.8,127.9,34.9z M89.7,57.9C81.8,57.9,76,51.8,76,43.8C76,36.1,82.2,30,90,30c7.8,0.1,13.7,6.2,13.7,14.2
			C103.7,52,97.6,58,89.7,57.9z"/>
	</g>
</g>
</svg>
